<mxfile host="65bd71144e">
    <diagram id="6IQLktUHSXBFyGcQcADn" name="Página-1">
        <mxGraphModel dx="1440" dy="1044" grid="0" gridSize="10" guides="1" tooltips="1" connect="1" arrows="1" fold="1" page="0" pageScale="1" pageWidth="827" pageHeight="1169" background="#000000" math="0" shadow="0">
            <root>
                <mxCell id="0"/>
                <mxCell id="1" parent="0"/>
                <mxCell id="20" style="edgeStyle=none;html=1;" edge="1" parent="1" source="9" target="10">
                    <mxGeometry relative="1" as="geometry"/>
                </mxCell>
                <mxCell id="21" style="edgeStyle=none;html=1;strokeColor=#FFFFFF;endArrow=none;endFill=0;" edge="1" parent="1" source="9" target="10">
                    <mxGeometry relative="1" as="geometry"/>
                </mxCell>
                <mxCell id="23" style="edgeStyle=none;html=1;exitX=0;exitY=0.5;exitDx=0;exitDy=0;entryX=0.5;entryY=1;entryDx=0;entryDy=0;strokeColor=#FFFFFF;endArrow=none;endFill=0;" edge="1" parent="1" source="9" target="22">
                    <mxGeometry relative="1" as="geometry"/>
                </mxCell>
                <mxCell id="60" style="edgeStyle=none;shape=connector;rounded=1;html=1;strokeColor=#FFFFFF;align=center;verticalAlign=middle;fontFamily=Helvetica;fontSize=11;fontColor=default;labelBackgroundColor=default;endArrow=none;endFill=0;" edge="1" parent="1" source="9" target="59">
                    <mxGeometry relative="1" as="geometry"/>
                </mxCell>
                <mxCell id="9" value="Funcionario" style="rounded=0;whiteSpace=wrap;html=1;strokeColor=#FFFFFF;" vertex="1" parent="1">
                    <mxGeometry x="167" y="270" width="120" height="60" as="geometry"/>
                </mxCell>
                <mxCell id="15" style="edgeStyle=none;html=1;strokeColor=#FFFFFF;endArrow=none;endFill=0;" edge="1" parent="1" source="30" target="11">
                    <mxGeometry relative="1" as="geometry"/>
                </mxCell>
                <mxCell id="16" style="edgeStyle=none;html=1;strokeColor=#FFFFFF;endArrow=none;endFill=0;" edge="1" parent="1" source="30" target="12">
                    <mxGeometry relative="1" as="geometry"/>
                </mxCell>
                <mxCell id="17" style="edgeStyle=none;html=1;strokeColor=#FFFFFF;endArrow=none;endFill=0;" edge="1" parent="1" source="30" target="13">
                    <mxGeometry relative="1" as="geometry">
                        <mxPoint x="626.9964068711929" y="413.4042712474619" as="sourcePoint"/>
                        <mxPoint x="705.2094755058777" y="543.0015293397574" as="targetPoint"/>
                    </mxGeometry>
                </mxCell>
                <mxCell id="10" value="endereço" style="ellipse;whiteSpace=wrap;html=1;" vertex="1" parent="1">
                    <mxGeometry x="170" y="377" width="120" height="80" as="geometry"/>
                </mxCell>
                <mxCell id="11" value="CEP" style="ellipse;whiteSpace=wrap;html=1;" vertex="1" parent="1">
                    <mxGeometry x="-112.5" y="699" width="120" height="80" as="geometry"/>
                </mxCell>
                <mxCell id="12" value="Nome_Rua" style="ellipse;whiteSpace=wrap;html=1;" vertex="1" parent="1">
                    <mxGeometry x="51.5" y="714" width="120" height="80" as="geometry"/>
                </mxCell>
                <mxCell id="13" value="Numero_Rua" style="ellipse;whiteSpace=wrap;html=1;" vertex="1" parent="1">
                    <mxGeometry x="207.5" y="712" width="120" height="80" as="geometry"/>
                </mxCell>
                <mxCell id="18" style="edgeStyle=none;html=1;" edge="1" parent="1" source="9" target="9">
                    <mxGeometry relative="1" as="geometry"/>
                </mxCell>
                <mxCell id="22" value="nome" style="ellipse;whiteSpace=wrap;html=1;" vertex="1" parent="1">
                    <mxGeometry x="74" y="174" width="74" height="58" as="geometry"/>
                </mxCell>
                <mxCell id="24" value="Segundo_nome" style="ellipse;whiteSpace=wrap;html=1;" vertex="1" parent="1">
                    <mxGeometry x="128" y="60" width="111" height="58" as="geometry"/>
                </mxCell>
                <mxCell id="25" value="Primeiro_nome" style="ellipse;whiteSpace=wrap;html=1;" vertex="1" parent="1">
                    <mxGeometry x="6" y="62" width="111" height="58" as="geometry"/>
                </mxCell>
                <mxCell id="26" style="edgeStyle=none;html=1;entryX=0.369;entryY=0.966;entryDx=0;entryDy=0;entryPerimeter=0;strokeColor=#FFFFFF;endArrow=none;endFill=0;" edge="1" parent="1" source="22" target="25">
                    <mxGeometry relative="1" as="geometry"/>
                </mxCell>
                <mxCell id="27" style="edgeStyle=none;html=1;strokeColor=#FFFFFF;endArrow=none;endFill=0;" edge="1" parent="1" target="24">
                    <mxGeometry relative="1" as="geometry">
                        <mxPoint x="102" y="188" as="sourcePoint"/>
                        <mxPoint x="57" y="128" as="targetPoint"/>
                        <Array as="points">
                            <mxPoint x="150" y="140"/>
                        </Array>
                    </mxGeometry>
                </mxCell>
                <mxCell id="28" value="Ultimo_nome" style="ellipse;whiteSpace=wrap;html=1;" vertex="1" parent="1">
                    <mxGeometry x="250" y="62" width="111" height="58" as="geometry"/>
                </mxCell>
                <mxCell id="29" style="edgeStyle=orthogonalEdgeStyle;html=1;strokeColor=#FFFFFF;endArrow=none;endFill=0;curved=1;" edge="1" parent="1" target="28">
                    <mxGeometry relative="1" as="geometry">
                        <mxPoint x="112" y="198" as="sourcePoint"/>
                        <mxPoint x="176" y="126" as="targetPoint"/>
                    </mxGeometry>
                </mxCell>
                <mxCell id="30" value="logradouro" style="ellipse;whiteSpace=wrap;html=1;" vertex="1" parent="1">
                    <mxGeometry x="59" y="501" width="120" height="80" as="geometry"/>
                </mxCell>
                <mxCell id="31" style="edgeStyle=none;html=1;entryX=0.033;entryY=0.588;entryDx=0;entryDy=0;entryPerimeter=0;strokeColor=#FFFFFF;endArrow=none;endFill=0;" edge="1" parent="1" source="10" target="30">
                    <mxGeometry relative="1" as="geometry"/>
                </mxCell>
                <mxCell id="43" style="edgeStyle=entityRelationEdgeStyle;html=1;fontColor=#FFFFFF;endArrow=none;endFill=0;strokeColor=#FFFFFF;" edge="1" parent="1" source="35">
                    <mxGeometry relative="1" as="geometry">
                        <mxPoint x="796" y="-209" as="targetPoint"/>
                    </mxGeometry>
                </mxCell>
                <mxCell id="35" value="&lt;h2&gt;&lt;font style=&quot;color: rgb(255, 255, 255);&quot;&gt;Func_1&lt;/font&gt;&lt;/h2&gt;" style="text;html=1;align=center;verticalAlign=middle;resizable=0;points=[];autosize=1;fillColor=#f5f5f5;fontColor=#333333;strokeColor=#666666;" vertex="1" parent="1">
                    <mxGeometry x="597" y="-190.5" width="81" height="63" as="geometry"/>
                </mxCell>
                <mxCell id="36" value="&lt;h2&gt;&lt;font style=&quot;color: rgb(255, 255, 255);&quot;&gt;nome = Adrian&lt;/font&gt;&lt;/h2&gt;" style="text;html=1;align=center;verticalAlign=middle;resizable=0;points=[];autosize=1;strokeColor=none;fillColor=none;" vertex="1" parent="1">
                    <mxGeometry x="821" y="-197" width="143" height="63" as="geometry"/>
                </mxCell>
                <mxCell id="37" value="&lt;h2&gt;&lt;font style=&quot;color: rgb(255, 255, 255);&quot;&gt;endereço = Rua tal, 751,&amp;nbsp;&lt;/font&gt;&lt;/h2&gt;&lt;h2&gt;&lt;font style=&quot;color: rgb(255, 255, 255);&quot;&gt;são paulo, SP , 07700110&lt;/font&gt;&lt;/h2&gt;" style="text;html=1;align=center;verticalAlign=middle;resizable=0;points=[];autosize=1;strokeColor=none;fillColor=none;" vertex="1" parent="1">
                    <mxGeometry x="799" y="-177.5" width="230" height="100" as="geometry"/>
                </mxCell>
                <mxCell id="38" value="&lt;h2&gt;&lt;font style=&quot;color: rgb(255, 255, 255);&quot;&gt;idade= 21&lt;/font&gt;&lt;/h2&gt;" style="text;html=1;align=center;verticalAlign=middle;resizable=0;points=[];autosize=1;strokeColor=none;fillColor=none;" vertex="1" parent="1">
                    <mxGeometry x="804" y="-74.5" width="101" height="63" as="geometry"/>
                </mxCell>
                <mxCell id="39" value="&lt;h2&gt;&lt;font style=&quot;color: rgb(255, 255, 255);&quot;&gt;telefone = 38 9999999&lt;/font&gt;&lt;/h2&gt;" style="text;html=1;align=center;verticalAlign=middle;resizable=0;points=[];autosize=1;strokeColor=none;fillColor=none;" vertex="1" parent="1">
                    <mxGeometry x="807" y="-5" width="203" height="63" as="geometry"/>
                </mxCell>
                <mxCell id="44" style="edgeStyle=entityRelationEdgeStyle;html=1;fontColor=#FFFFFF;endArrow=none;endFill=0;strokeColor=#FFFFFF;" edge="1" parent="1" source="35" target="37">
                    <mxGeometry relative="1" as="geometry">
                        <mxPoint x="703" y="-147.5" as="sourcePoint"/>
                        <mxPoint x="806" y="-198.5" as="targetPoint"/>
                    </mxGeometry>
                </mxCell>
                <mxCell id="45" style="edgeStyle=entityRelationEdgeStyle;html=1;fontColor=#FFFFFF;endArrow=none;endFill=0;strokeColor=#FFFFFF;exitX=0.358;exitY=0.948;exitDx=0;exitDy=0;exitPerimeter=0;" edge="1" parent="1" source="35" target="39">
                    <mxGeometry relative="1" as="geometry">
                        <mxPoint x="679.7159999999999" y="-54.499000000000024" as="sourcePoint"/>
                        <mxPoint x="799" y="29" as="targetPoint"/>
                    </mxGeometry>
                </mxCell>
                <mxCell id="47" style="edgeStyle=entityRelationEdgeStyle;html=1;fontColor=#FFFFFF;endArrow=none;endFill=0;strokeColor=#FFFFFF;" edge="1" parent="1" source="35">
                    <mxGeometry relative="1" as="geometry">
                        <mxPoint x="690" y="-112.5" as="sourcePoint"/>
                        <mxPoint x="814" y="-32.5" as="targetPoint"/>
                    </mxGeometry>
                </mxCell>
                <mxCell id="48" value="func_1" style="text;html=1;align=center;verticalAlign=middle;resizable=0;points=[];autosize=1;strokeColor=none;fillColor=none;strokeWidth=22;" vertex="1" parent="1">
                    <mxGeometry x="606" y="-168.5" width="54" height="26" as="geometry"/>
                </mxCell>
                <mxCell id="49" value="departamento" style="rounded=0;whiteSpace=wrap;html=1;strokeColor=#FFFFFF;" vertex="1" parent="1">
                    <mxGeometry x="-303" y="281" width="123" height="60" as="geometry"/>
                </mxCell>
                <mxCell id="50" value="trabalha_para" style="rhombus;whiteSpace=wrap;html=1;" vertex="1" parent="1">
                    <mxGeometry x="-75" y="249" width="116" height="124" as="geometry"/>
                </mxCell>
                <mxCell id="51" style="edgeStyle=none;html=1;entryX=0.082;entryY=0.54;entryDx=0;entryDy=0;entryPerimeter=0;strokeColor=#FFFFFF;endArrow=none;endFill=0;" edge="1" parent="1" source="49" target="50">
                    <mxGeometry relative="1" as="geometry"/>
                </mxCell>
                <mxCell id="54" style="edgeStyle=none;html=1;entryX=1;entryY=0.5;entryDx=0;entryDy=0;strokeColor=#FFFFFF;endArrow=none;endFill=0;exitX=0;exitY=0.75;exitDx=0;exitDy=0;" edge="1" parent="1" source="9" target="50">
                    <mxGeometry relative="1" as="geometry">
                        <mxPoint x="-170" y="321" as="sourcePoint"/>
                        <mxPoint x="-47" y="322" as="targetPoint"/>
                    </mxGeometry>
                </mxCell>
                <mxCell id="56" style="edgeStyle=none;html=1;" edge="1" parent="1" source="55">
                    <mxGeometry relative="1" as="geometry">
                        <mxPoint x="-146.5" y="331.13043478260875" as="targetPoint"/>
                    </mxGeometry>
                </mxCell>
                <mxCell id="55" value="&lt;font style=&quot;color: rgb(255, 255, 255);&quot;&gt;1&lt;/font&gt;" style="text;html=1;align=center;verticalAlign=middle;resizable=0;points=[];autosize=1;strokeColor=none;fillColor=none;" vertex="1" parent="1">
                    <mxGeometry x="-159" y="274" width="25" height="26" as="geometry"/>
                </mxCell>
                <mxCell id="57" value="&lt;font style=&quot;color: rgb(255, 255, 255);&quot;&gt;*&lt;/font&gt;" style="text;html=1;align=center;verticalAlign=middle;resizable=0;points=[];autosize=1;strokeColor=none;fillColor=none;perimeterSpacing=4;strokeWidth=5;" vertex="1" parent="1">
                    <mxGeometry x="96" y="287" width="23" height="26" as="geometry"/>
                </mxCell>
                <mxCell id="66" style="edgeStyle=none;shape=connector;rounded=1;html=1;entryX=0.5;entryY=0;entryDx=0;entryDy=0;strokeColor=#FFFFFF;align=center;verticalAlign=middle;fontFamily=Helvetica;fontSize=11;fontColor=default;labelBackgroundColor=default;endArrow=none;endFill=0;" edge="1" parent="1" source="58" target="64">
                    <mxGeometry relative="1" as="geometry"/>
                </mxCell>
                <mxCell id="67" style="edgeStyle=none;shape=connector;rounded=1;html=1;strokeColor=#FFFFFF;align=center;verticalAlign=middle;fontFamily=Helvetica;fontSize=11;fontColor=default;labelBackgroundColor=default;endArrow=none;endFill=0;" edge="1" parent="1" source="58" target="65">
                    <mxGeometry relative="1" as="geometry"/>
                </mxCell>
                <mxCell id="73" style="edgeStyle=none;shape=connector;rounded=1;html=1;entryX=0;entryY=0.5;entryDx=0;entryDy=0;strokeColor=#FFFFFF;align=center;verticalAlign=middle;fontFamily=Helvetica;fontSize=11;fontColor=default;labelBackgroundColor=default;endArrow=none;endFill=0;" edge="1" parent="1" source="58" target="72">
                    <mxGeometry relative="1" as="geometry"/>
                </mxCell>
                <mxCell id="58" value="usuario" style="rounded=0;whiteSpace=wrap;html=1;strokeColor=#FFFFFF;" vertex="1" parent="1">
                    <mxGeometry x="502" y="267" width="120" height="60" as="geometry"/>
                </mxCell>
                <mxCell id="61" style="edgeStyle=none;shape=connector;rounded=1;html=1;entryX=0;entryY=0.5;entryDx=0;entryDy=0;strokeColor=#FFFFFF;align=center;verticalAlign=middle;fontFamily=Helvetica;fontSize=11;fontColor=default;labelBackgroundColor=default;endArrow=none;endFill=0;" edge="1" parent="1" source="59" target="58">
                    <mxGeometry relative="1" as="geometry"/>
                </mxCell>
                <mxCell id="59" value="pode_ter" style="rhombus;whiteSpace=wrap;html=1;" vertex="1" parent="1">
                    <mxGeometry x="331" y="238" width="116" height="124" as="geometry"/>
                </mxCell>
                <mxCell id="62" value="&lt;font style=&quot;color: rgb(255, 255, 255);&quot;&gt;1&lt;/font&gt;" style="text;html=1;align=center;verticalAlign=middle;resizable=0;points=[];autosize=1;strokeColor=none;fillColor=none;perimeterSpacing=4;strokeWidth=5;" vertex="1" parent="1">
                    <mxGeometry x="301" y="270" width="25" height="26" as="geometry"/>
                </mxCell>
                <mxCell id="63" value="&lt;font style=&quot;color: rgb(255, 255, 255);&quot;&gt;1&lt;/font&gt;" style="text;html=1;align=center;verticalAlign=middle;resizable=0;points=[];autosize=1;strokeColor=none;fillColor=none;perimeterSpacing=4;strokeWidth=5;" vertex="1" parent="1">
                    <mxGeometry x="456" y="261" width="25" height="26" as="geometry"/>
                </mxCell>
                <mxCell id="64" value="id" style="ellipse;whiteSpace=wrap;html=1;" vertex="1" parent="1">
                    <mxGeometry x="377" y="400" width="120" height="80" as="geometry"/>
                </mxCell>
                <mxCell id="65" value="dominio" style="ellipse;whiteSpace=wrap;html=1;" vertex="1" parent="1">
                    <mxGeometry x="517" y="400" width="120" height="80" as="geometry"/>
                </mxCell>
                <mxCell id="68" value="password" style="ellipse;whiteSpace=wrap;html=1;" vertex="1" parent="1">
                    <mxGeometry x="663" y="400" width="120" height="80" as="geometry"/>
                </mxCell>
                <mxCell id="69" style="edgeStyle=none;shape=connector;rounded=1;html=1;entryX=0.233;entryY=0.113;entryDx=0;entryDy=0;entryPerimeter=0;strokeColor=#FFFFFF;align=center;verticalAlign=middle;fontFamily=Helvetica;fontSize=11;fontColor=default;labelBackgroundColor=default;endArrow=none;endFill=0;" edge="1" parent="1" source="58" target="68">
                    <mxGeometry relative="1" as="geometry"/>
                </mxCell>
                <mxCell id="70" value="projetos" style="rounded=0;whiteSpace=wrap;html=1;strokeColor=#FFFFFF;" vertex="1" parent="1">
                    <mxGeometry x="890" y="270" width="120" height="60" as="geometry"/>
                </mxCell>
                <mxCell id="74" style="edgeStyle=none;shape=connector;rounded=1;html=1;entryX=0;entryY=0.5;entryDx=0;entryDy=0;strokeColor=#FFFFFF;align=center;verticalAlign=middle;fontFamily=Helvetica;fontSize=11;fontColor=default;labelBackgroundColor=default;endArrow=none;endFill=0;" edge="1" parent="1" source="72" target="70">
                    <mxGeometry relative="1" as="geometry"/>
                </mxCell>
                <mxCell id="72" value="desenvolve" style="rhombus;whiteSpace=wrap;html=1;" vertex="1" parent="1">
                    <mxGeometry x="692" y="235" width="116" height="124" as="geometry"/>
                </mxCell>
                <mxCell id="75" value="&lt;font style=&quot;color: rgb(255, 255, 255);&quot;&gt;*&lt;/font&gt;" style="text;html=1;align=center;verticalAlign=middle;resizable=0;points=[];autosize=1;strokeColor=none;fillColor=none;perimeterSpacing=4;strokeWidth=5;" vertex="1" parent="1">
                    <mxGeometry x="646" y="265" width="23" height="26" as="geometry"/>
                </mxCell>
                <mxCell id="76" value="&lt;font style=&quot;color: rgb(255, 255, 255);&quot;&gt;*&lt;/font&gt;" style="text;html=1;align=center;verticalAlign=middle;resizable=0;points=[];autosize=1;strokeColor=none;fillColor=none;perimeterSpacing=4;strokeWidth=5;" vertex="1" parent="1">
                    <mxGeometry x="825" y="261" width="23" height="26" as="geometry"/>
                </mxCell>
            </root>
        </mxGraphModel>
    </diagram>
</mxfile>